<svg width="163" height="87" viewBox="0 0 163 87" fill="none" xmlns="http://www.w3.org/2000/svg">
<path d="M81.5 34.9999H94.7863C94.9462 35.002 95.1051 34.9721 95.2533 34.9118C95.4015 34.8516 95.536 34.7623 95.6491 34.6491C95.7623 34.5361 95.8516 34.4014 95.9118 34.2532C95.9721 34.1051 96.002 33.9463 95.9999 33.7864V20.4999C95.9999 16.6544 94.4722 12.9662 91.753 10.2469C89.0337 7.52767 85.3456 6 81.5 6C79.5958 6 77.7103 6.37505 75.9511 7.10375C74.1919 7.83243 72.5934 8.90049 71.247 10.2469C69.9005 11.5934 68.8324 13.1919 68.1037 14.9511C67.375 16.7103 67 18.5958 67 20.4999C67 22.4041 67.375 24.2897 68.1037 26.0488C68.8324 27.808 69.9005 29.4066 71.247 30.753C72.5934 32.0994 74.1919 33.1675 75.9511 33.8962C77.7103 34.6248 79.5958 34.9999 81.5 34.9999Z" stroke="white" stroke-width="2" stroke-linecap="round" stroke-linejoin="round"/>
<path d="M77 18.4541H86.8589" stroke="#757575" stroke-width="2" stroke-linecap="round" stroke-linejoin="round"/>
<path d="M77 23.7275H86.8589" stroke="#757575" stroke-width="2" stroke-linecap="round" stroke-linejoin="round"/>
<path d="M9.3087 51.8296V71H6.80707V51.8296H9.3087ZM15.4706 51.8296V53.9099H0.658324V51.8296H15.4706ZM20.5924 56.7539V71H18.1434V56.7539H20.5924ZM17.9591 52.9751C17.9591 52.5801 18.0776 52.2466 18.3146 51.9744C18.5603 51.7023 18.9202 51.5663 19.3942 51.5663C19.8594 51.5663 20.2149 51.7023 20.4607 51.9744C20.7153 52.2466 20.8425 52.5801 20.8425 52.9751C20.8425 53.3525 20.7153 53.6773 20.4607 53.9494C20.2149 54.2127 19.8594 54.3444 19.3942 54.3444C18.9202 54.3444 18.5603 54.2127 18.3146 53.9494C18.0776 53.6773 17.9591 53.3525 17.9591 52.9751ZM30.2039 69.262C30.7832 69.262 31.3187 69.1435 31.8102 68.9065C32.3017 68.6695 32.7055 68.3448 33.0215 67.9322C33.3375 67.5109 33.5175 67.0325 33.5613 66.4971H35.8786C35.8348 67.3397 35.5495 68.1253 35.0228 68.8539C34.5049 69.5736 33.8247 70.1573 32.982 70.605C32.1394 71.0439 31.2133 71.2633 30.2039 71.2633C29.133 71.2633 28.1982 71.0746 27.3994 70.6972C26.6094 70.3197 25.9511 69.8019 25.4245 69.1435C24.9066 68.4852 24.516 67.7303 24.2526 66.8789C23.9981 66.0187 23.8708 65.1102 23.8708 64.1534V63.6004C23.8708 62.6437 23.9981 61.7396 24.2526 60.8881C24.516 60.0279 24.9066 59.2687 25.4245 58.6103C25.9511 57.952 26.6094 57.4341 27.3994 57.0567C28.1982 56.6793 29.133 56.4905 30.2039 56.4905C31.3187 56.4905 32.293 56.7188 33.1268 57.1752C33.9607 57.6229 34.6147 58.2373 35.0887 59.0185C35.5714 59.7909 35.8348 60.6687 35.8786 61.6518H33.5613C33.5175 61.0637 33.3507 60.5327 33.061 60.0587C32.7801 59.5847 32.3939 59.2072 31.9024 58.9263C31.4196 58.6367 30.8534 58.4918 30.2039 58.4918C29.4578 58.4918 28.8302 58.6411 28.3211 58.9395C27.8208 59.2292 27.4214 59.6242 27.1229 60.1245C26.8333 60.616 26.6226 61.1646 26.4909 61.7703C26.3681 62.3672 26.3066 62.9772 26.3066 63.6004V64.1534C26.3066 64.7766 26.3681 65.3911 26.4909 65.9967C26.6138 66.6024 26.8201 67.151 27.1098 67.6425C27.4082 68.1341 27.8076 68.5291 28.3079 68.8275C28.817 69.1172 29.449 69.262 30.2039 69.262ZM41.0662 50.7763V71H38.6173V50.7763H41.0662ZM49.7693 56.7539L43.5547 63.4029L40.0787 67.0106L39.8812 64.4168L42.3697 61.4411L46.7936 56.7539H49.7693ZM47.5441 71L42.4619 64.2061L43.7259 62.0336L50.4144 71H47.5441ZM57.9325 71.2633C56.9406 71.2633 56.0409 71.0966 55.2334 70.763C54.4346 70.4207 53.7455 69.9423 53.1662 69.3279C52.5957 68.7134 52.1568 67.9849 51.8496 67.1422C51.5424 66.2996 51.3888 65.3779 51.3888 64.3773V63.8243C51.3888 62.6656 51.5599 61.6342 51.9022 60.7302C52.2446 59.8173 52.7098 59.0448 53.2979 58.4129C53.886 57.7809 54.5531 57.3025 55.2992 56.9777C56.0453 56.6529 56.8177 56.4905 57.6165 56.4905C58.6347 56.4905 59.5125 56.6661 60.2498 57.0172C60.9959 57.3683 61.6059 57.8599 62.0799 58.4918C62.5539 59.1151 62.905 59.8524 63.1332 60.7038C63.3615 61.5465 63.4756 62.4681 63.4756 63.4688V64.5616H52.8371V62.5735H61.0398V62.3891C61.0047 61.7571 60.873 61.1427 60.6448 60.5458C60.4253 59.9489 60.0742 59.4574 59.5915 59.0712C59.1087 58.685 58.4504 58.4918 57.6165 58.4918C57.0635 58.4918 56.5544 58.6103 56.0892 58.8473C55.624 59.0756 55.2246 59.4179 54.891 59.8743C54.5575 60.3308 54.2985 60.8881 54.1142 61.5465C53.9299 62.2048 53.8377 62.9641 53.8377 63.8243V64.3773C53.8377 65.0531 53.9299 65.6895 54.1142 66.2864C54.3073 66.8745 54.5838 67.3924 54.9437 67.84C55.3124 68.2877 55.7556 68.6388 56.2735 68.8934C56.8002 69.1479 57.3971 69.2752 58.0642 69.2752C58.9244 69.2752 59.6529 69.0996 60.2498 68.7485C60.8467 68.3974 61.3689 67.9278 61.8166 67.3397L63.2912 68.5115C62.984 68.9768 62.5934 69.42 62.1194 69.8414C61.6454 70.2627 61.0617 70.605 60.3683 70.8683C59.6836 71.1317 58.8717 71.2633 57.9325 71.2633ZM72.2839 56.7539V58.6235H64.5816V56.7539H72.2839ZM67.1885 53.2911H69.6243V67.4714C69.6243 67.9542 69.6989 68.3184 69.8481 68.5642C69.9974 68.81 70.1905 68.9724 70.4275 69.0514C70.6645 69.1304 70.919 69.1699 71.1911 69.1699C71.393 69.1699 71.6037 69.1523 71.8231 69.1172C72.0513 69.0733 72.2225 69.0382 72.3366 69.0119L72.3498 71C72.1567 71.0614 71.9021 71.1185 71.5861 71.1712C71.2789 71.2326 70.9059 71.2633 70.467 71.2633C69.8701 71.2633 69.3215 71.1448 68.8212 70.9078C68.3208 70.6708 67.9215 70.2758 67.623 69.7229C67.3333 69.1611 67.1885 68.4062 67.1885 67.4582V53.2911Z" fill="#757575"/>
<path d="M85.7269 66.1547C85.7269 65.7071 85.6567 65.3121 85.5163 64.9698C85.3846 64.6186 85.1476 64.3027 84.8053 64.0218C84.4717 63.7409 84.0065 63.4732 83.4096 63.2186C82.8215 62.9641 82.0754 62.7051 81.1713 62.4418C80.2233 62.1609 79.3675 61.8493 78.6039 61.507C77.8402 61.1559 77.1863 60.7565 76.6421 60.3088C76.0978 59.8612 75.6809 59.3477 75.3912 58.7683C75.1016 58.189 74.9567 57.5263 74.9567 56.7802C74.9567 56.0341 75.1104 55.3451 75.4176 54.7131C75.7248 54.0811 76.1637 53.5325 76.7342 53.0673C77.3135 52.5933 78.0026 52.2246 78.8014 51.9613C79.6001 51.6979 80.491 51.5663 81.4741 51.5663C82.9137 51.5663 84.1338 51.8428 85.1344 52.3958C86.1439 52.94 86.9119 53.6554 87.4386 54.5419C87.9652 55.4197 88.2285 56.3589 88.2285 57.3595H85.7006C85.7006 56.6398 85.547 56.0034 85.2398 55.4504C84.9325 54.8886 84.4673 54.4497 83.8441 54.1337C83.2209 53.809 82.4309 53.6466 81.4741 53.6466C80.57 53.6466 79.8239 53.7826 79.2358 54.0547C78.6477 54.3269 78.2089 54.6955 77.9192 55.1607C77.6383 55.6259 77.4979 56.157 77.4979 56.7539C77.4979 57.1576 77.5813 57.5263 77.748 57.8599C77.9236 58.1846 78.1913 58.4875 78.5512 58.7683C78.9199 59.0492 79.3851 59.3082 79.9468 59.5452C80.5174 59.7822 81.1977 60.0104 81.9876 60.2298C83.0761 60.537 84.0153 60.8794 84.8053 61.2568C85.5953 61.6342 86.2448 62.06 86.7539 62.534C87.2718 62.9992 87.6536 63.5302 87.8994 64.1271C88.1539 64.7152 88.2812 65.3823 88.2812 66.1284C88.2812 66.9096 88.1232 67.6162 87.8072 68.2482C87.4912 68.8802 87.0392 69.42 86.4511 69.8677C85.863 70.3153 85.1564 70.6621 84.3313 70.9078C83.5149 71.1448 82.6021 71.2633 81.5926 71.2633C80.7061 71.2633 79.8327 71.1404 78.9725 70.8947C78.1211 70.6489 77.3443 70.2802 76.6421 69.7887C75.9486 69.2971 75.3912 68.6915 74.9699 67.9717C74.5574 67.2432 74.3511 66.4005 74.3511 65.4437H76.879C76.879 66.1021 77.0063 66.6682 77.2609 67.1422C77.5154 67.6074 77.8621 67.9937 78.301 68.3009C78.7487 68.6081 79.2534 68.8363 79.8152 68.9855C80.3857 69.126 80.9782 69.1962 81.5926 69.1962C82.4792 69.1962 83.2297 69.0733 83.8441 68.8275C84.4585 68.5818 84.9238 68.2307 85.2398 67.7742C85.5645 67.3178 85.7269 66.778 85.7269 66.1547ZM95.1541 69.5254L99.1172 56.7539H101.724L96.0099 73.1988C95.8783 73.5499 95.7027 73.9273 95.4833 74.3311C95.2726 74.7437 95.0005 75.1343 94.667 75.5029C94.3334 75.8716 93.9296 76.17 93.4556 76.3983C92.9904 76.6353 92.433 76.7537 91.7835 76.7537C91.5904 76.7537 91.3446 76.7274 91.0462 76.6748C90.7477 76.6221 90.5371 76.5782 90.4142 76.5431L90.401 74.5681C90.4712 74.5769 90.581 74.5857 90.7302 74.5944C90.8882 74.612 90.9979 74.6208 91.0593 74.6208C91.6123 74.6208 92.0819 74.5462 92.4681 74.397C92.8544 74.2565 93.1791 74.0151 93.4425 73.6728C93.7146 73.3392 93.9472 72.8784 94.1403 72.2903L95.1541 69.5254ZM92.2443 56.7539L95.9441 67.8137L96.5761 70.3812L94.8249 71.2765L89.5847 56.7539H92.2443ZM112.218 67.2212C112.218 66.8701 112.139 66.5453 111.981 66.2469C111.832 65.9397 111.52 65.6632 111.046 65.4174C110.581 65.1629 109.879 64.9434 108.939 64.7591C108.149 64.5923 107.434 64.3948 106.793 64.1666C106.161 63.9384 105.621 63.6619 105.174 63.3371C104.735 63.0123 104.397 62.6305 104.16 62.1916C103.923 61.7527 103.804 61.2393 103.804 60.6512C103.804 60.0894 103.927 59.5583 104.173 59.058C104.428 58.5577 104.783 58.1144 105.24 57.7282C105.705 57.342 106.262 57.0391 106.912 56.8197C107.561 56.6003 108.285 56.4905 109.084 56.4905C110.225 56.4905 111.2 56.6924 112.007 57.0962C112.815 57.5 113.434 58.0398 113.864 58.7157C114.294 59.3828 114.509 60.1245 114.509 60.9408H112.073C112.073 60.5458 111.955 60.164 111.718 59.7953C111.489 59.4179 111.151 59.1063 110.704 58.8605C110.265 58.6147 109.725 58.4918 109.084 58.4918C108.408 58.4918 107.86 58.5972 107.438 58.8078C107.026 59.0097 106.723 59.2687 106.53 59.5847C106.346 59.9007 106.253 60.2342 106.253 60.5853C106.253 60.8486 106.297 61.0856 106.385 61.2963C106.482 61.4982 106.648 61.6869 106.885 61.8625C107.122 62.0292 107.456 62.1872 107.886 62.3365C108.316 62.4857 108.865 62.6349 109.532 62.7841C110.699 63.0474 111.66 63.3634 112.415 63.7321C113.17 64.1008 113.732 64.5528 114.101 65.0883C114.469 65.6237 114.654 66.2732 114.654 67.0369C114.654 67.6601 114.522 68.2307 114.259 68.7485C114.004 69.2664 113.631 69.7141 113.14 70.0915C112.657 70.4602 112.077 70.7498 111.402 70.9605C110.734 71.1624 109.984 71.2633 109.15 71.2633C107.895 71.2633 106.833 71.0395 105.964 70.5918C105.095 70.1442 104.436 69.5649 103.989 68.8539C103.541 68.1429 103.317 67.3924 103.317 66.6024H105.766C105.801 67.2695 105.995 67.8005 106.346 68.1955C106.697 68.5818 107.127 68.8583 107.636 69.025C108.145 69.183 108.65 69.262 109.15 69.262C109.817 69.262 110.375 69.1742 110.822 68.9987C111.279 68.8231 111.625 68.5818 111.862 68.2745C112.099 67.9673 112.218 67.6162 112.218 67.2212ZM123.818 56.7539V58.6235H116.115V56.7539H123.818ZM118.722 53.2911H121.158V67.4714C121.158 67.9542 121.233 68.3184 121.382 68.5642C121.531 68.81 121.724 68.9724 121.961 69.0514C122.198 69.1304 122.453 69.1699 122.725 69.1699C122.927 69.1699 123.137 69.1523 123.357 69.1172C123.585 69.0733 123.756 69.0382 123.87 69.0119L123.883 71C123.69 71.0614 123.436 71.1185 123.12 71.1712C122.812 71.2326 122.439 71.2633 122.001 71.2633C121.404 71.2633 120.855 71.1448 120.355 70.9078C119.854 70.6708 119.455 70.2758 119.157 69.7229C118.867 69.1611 118.722 68.4062 118.722 67.4582V53.2911ZM132.586 71.2633C131.595 71.2633 130.695 71.0966 129.887 70.763C129.089 70.4207 128.399 69.9423 127.82 69.3279C127.25 68.7134 126.811 67.9849 126.503 67.1422C126.196 66.2996 126.043 65.3779 126.043 64.3773V63.8243C126.043 62.6656 126.214 61.6342 126.556 60.7302C126.898 59.8173 127.364 59.0448 127.952 58.4129C128.54 57.7809 129.207 57.3025 129.953 56.9777C130.699 56.6529 131.472 56.4905 132.27 56.4905C133.289 56.4905 134.166 56.6661 134.904 57.0172C135.65 57.3683 136.26 57.8599 136.734 58.4918C137.208 59.1151 137.559 59.8524 137.787 60.7038C138.015 61.5465 138.129 62.4681 138.129 63.4688V64.5616H127.491V62.5735H135.694V62.3891C135.659 61.7571 135.527 61.1427 135.299 60.5458C135.079 59.9489 134.728 59.4574 134.245 59.0712C133.763 58.685 133.104 58.4918 132.27 58.4918C131.717 58.4918 131.208 58.6103 130.743 58.8473C130.278 59.0756 129.878 59.4179 129.545 59.8743C129.211 60.3308 128.952 60.8881 128.768 61.5465C128.584 62.2048 128.492 62.9641 128.492 63.8243V64.3773C128.492 65.0531 128.584 65.6895 128.768 66.2864C128.961 66.8745 129.238 67.3924 129.598 67.84C129.966 68.2877 130.41 68.6388 130.927 68.8934C131.454 69.1479 132.051 69.2752 132.718 69.2752C133.578 69.2752 134.307 69.0996 134.904 68.7485C135.501 68.3974 136.023 67.9278 136.471 67.3397L137.945 68.5115C137.638 68.9768 137.247 69.42 136.773 69.8414C136.299 70.2627 135.716 70.605 135.022 70.8683C134.338 71.1317 133.526 71.2633 132.586 71.2633ZM143.396 59.5847V71H140.947V56.7539H143.264L143.396 59.5847ZM142.896 63.3371L141.763 63.2976C141.772 62.3233 141.899 61.4236 142.145 60.5985C142.391 59.7646 142.755 59.0405 143.238 58.426C143.721 57.8116 144.322 57.3376 145.042 57.004C145.762 56.6617 146.596 56.4905 147.544 56.4905C148.211 56.4905 148.825 56.5871 149.387 56.7802C149.949 56.9645 150.436 57.2586 150.848 57.6624C151.261 58.0661 151.581 58.584 151.809 59.216C152.038 59.848 152.152 60.6117 152.152 61.507V71H149.716V61.6255C149.716 60.8794 149.589 60.2825 149.334 59.8348C149.088 59.3872 148.737 59.0624 148.281 58.8605C147.824 58.6498 147.289 58.5445 146.675 58.5445C145.955 58.5445 145.353 58.6718 144.871 58.9263C144.388 59.1809 144.002 59.532 143.712 59.9797C143.422 60.4273 143.212 60.9408 143.08 61.5201C142.957 62.0907 142.896 62.6963 142.896 63.3371ZM152.125 61.9941L150.493 62.4945C150.502 61.7132 150.629 60.9628 150.875 60.243C151.129 59.5232 151.493 58.8825 151.967 58.3207C152.45 57.7589 153.043 57.3156 153.745 56.9909C154.447 56.6573 155.25 56.4905 156.154 56.4905C156.918 56.4905 157.594 56.5915 158.182 56.7934C158.779 56.9953 159.279 57.3069 159.683 57.7282C160.096 58.1407 160.407 58.6718 160.618 59.3213C160.828 59.9709 160.934 60.7433 160.934 61.6386V71H158.485V61.6123C158.485 60.8135 158.358 60.1947 158.103 59.7558C157.857 59.3082 157.506 58.9966 157.05 58.821C156.602 58.6367 156.067 58.5445 155.443 58.5445C154.908 58.5445 154.434 58.6367 154.021 58.821C153.609 59.0053 153.262 59.2599 152.981 59.5847C152.7 59.9007 152.485 60.2649 152.336 60.6775C152.196 61.09 152.125 61.5289 152.125 61.9941Z" fill="white"/>
</svg>
